<svg xmlns="http://www.w3.org/2000/svg" width="160" height="160" viewBox="0 0 160 160">
  <!-- Original slopchan star tile, MIT licensed. No external assets. -->
  <rect width="160" height="160" fill="#29294f"/>
  <g fill="#9b9bc9" opacity=".55">
    <circle cx="11" cy="19" r=".8"/><circle cx="103" cy="13" r=".7"/>
    <circle cx="135" cy="53" r=".8"/><circle cx="58" cy="91" r=".6"/>
    <circle cx="21" cy="140" r=".7"/><circle cx="118" cy="128" r=".6"/>
    <circle cx="79" cy="145" r=".8"/><circle cx="151" cy="104" r=".6"/>
  </g>
  <g fill="#c1c1e5" opacity=".8">
    <path d="M45 32l1.2 4.8L51 38l-4.8 1.2L45 44l-1.2-4.8L39 38l4.8-1.2z"/>
    <path d="M104 77l.8 3.2L108 81l-3.2.8L104 85l-.8-3.2L100 81l3.2-.8z"/>
    <path d="M31 105l.7 2.3 2.3.7-2.3.7L31 111l-.7-2.3-2.3-.7 2.3-.7z"/>
  </g>
</svg>
